<svg xmlns="http://www.w3.org/2000/svg" xmlns:xlink="http://www.w3.org/1999/xlink" viewBox="0 0 396.49 396.49"><defs><style>.cls-1,.cls-7{fill:none;}.cls-2{isolation:isolate;}.cls-3{clip-path:url(#clip-path);}.cls-4{fill:#ffcb21;}.cls-5{opacity:0.5;mix-blend-mode:multiply;fill:url(#linear-gradient);}.cls-6{fill:#2581f3;}.cls-7{stroke:#fff;stroke-miterlimit:10;stroke-width:3px;}.cls-8{fill:#fcfcfc;}</style><clipPath id="clip-path"><circle class="cls-1" cx="198.25" cy="198.25" r="198.25"/></clipPath><linearGradient id="linear-gradient" x1="173.05" y1="148.19" x2="406.76" y2="377.59" gradientUnits="userSpaceOnUse"><stop offset="0" stop-color="#221e1f"/><stop offset="1" stop-color="#fff"/></linearGradient></defs><title>shield</title><g class="cls-2"><g id="OBJECTS"><g class="cls-3"><circle class="cls-4" cx="198.25" cy="198.25" r="198.25"/><path class="cls-5" d="M413.12,268c0-7.75,10.89-21.69,10.89-21.69l-6.87-27.89c-.3.16-119.52-115.17-119.52-115.17-27.69,14.32-50.54,18.54-66,12.69a25.84,25.84,0,0,1-8.88-5.69c-7.2-7-22.5-27.5-22.5-27.5s-29.34,57-96.74,22.17l-7,27.89s10.85,13.94,10.85,21.69-1.07,15.69-1.18,23.54A218.11,218.11,0,0,0,110,223.59c3.49,17.61,9.74,34.57,19.8,49.51a75.82,75.82,0,0,0,11.82,13.56c.44.42,118.38,111.84,118.82,112.25,9.79,9.34,21.64,16.33,33.37,23.39,2.82,1.69,5.68,3.31,8.61,4.79a162.46,162.46,0,0,1,18,10.57s7.94-4.73,18.41-10.85c7.88-4.6,14.83-8.39,21.91-13.12,8.81-5.89,17.75-11.8,24.62-20a104.87,104.87,0,0,0,15.89-26.51,143.23,143.23,0,0,0,5.42-15.07,190.09,190.09,0,0,0,7.36-46.65,282.28,282.28,0,0,0-.65-32.15C413.33,271.57,413.12,269.78,413.12,268Z"/><path class="cls-6" d="M303.87,132.81,297,104.92c-67.4,34.86-96.65-20.53-96.65-20.53s-29.44,55.39-96.84,20.53l-7,27.89s10.85,13.94,10.85,21.69-1.07,15.69-1.18,23.54A218.11,218.11,0,0,0,110,223.59c3.49,17.61,9.74,34.57,19.8,49.51,10.7,15.9,26.95,25.53,43,35.21,2.91,1.75,5.85,3.49,8.89,5a162.87,162.87,0,0,1,18.59,10.85s7.94-4.73,18.41-10.85c7.88-4.6,14.83-8.39,21.91-13.12,8.81-5.89,17.75-11.8,24.62-20a104.89,104.89,0,0,0,15.89-26.51,143.38,143.38,0,0,0,5.42-15.07A190.13,190.13,0,0,0,294,192a282.76,282.76,0,0,0-.65-32.15c-.13-1.77-.34-3.56-.34-5.34C293,146.76,303.87,132.81,303.87,132.81Z"/><path class="cls-7" d="M303.87,132.81,297,104.92c-67.4,34.86-96.65-20.53-96.65-20.53s-29.44,55.39-96.84,20.53l-7,27.89s10.85,13.94,10.85,21.69-1.07,15.69-1.18,23.54A218.11,218.11,0,0,0,110,223.59c3.49,17.61,9.74,34.57,19.8,49.51,10.7,15.9,26.95,25.53,43,35.21,2.91,1.75,5.85,3.49,8.89,5a162.87,162.87,0,0,1,18.59,10.85s7.94-4.73,18.41-10.85c7.88-4.6,14.83-8.39,21.91-13.12,8.81-5.89,17.75-11.8,24.62-20a104.89,104.89,0,0,0,15.89-26.51,143.38,143.38,0,0,0,5.42-15.07A190.13,190.13,0,0,0,294,192a282.76,282.76,0,0,0-.65-32.15c-.13-1.77-.34-3.56-.34-5.34C293,146.76,303.87,132.81,303.87,132.81Z"/><path class="cls-8" d="M200.33,99.57c9.29,10.82,27,25.48,54.69,25.48a94.08,94.08,0,0,0,35.85-7.55l3.25,13.27c-4.18,5.95-10.15,15.81-10.15,23.69,0,1.68.13,3.26.25,4.64,0,.46.08.93.11,1.39a272.63,272.63,0,0,1,.64,31.13,181.75,181.75,0,0,1-7,44.44,134.8,134.8,0,0,1-5.08,14.13,96,96,0,0,1-14.5,24.24c-6,7.08-13.92,12.4-22.35,18l-.38.25c-5.14,3.43-10.35,6.43-15.87,9.61l-.26.15-5.31,3.07c-5.57,3.25-10.47,6.14-13.65,8-3.64-2.28-8.76-5.28-14.8-8.3-2.75-1.38-5.48-3-8.27-4.68l-.71-.42c-15.47-9.3-30.08-18.09-39.51-32.1-8.71-12.95-14.92-28.5-18.44-46.23a210,210,0,0,1-3.65-43.67c0-3.45.3-6.93.56-10.61.3-4.23.62-8.6.62-13.05,0-7.82-5.93-17.66-10.09-23.61l3.3-13.31c12.43,5.15,24.49,7.66,35.9,7.66h0c27.58,0,45.42-14.73,54.83-25.68m0-13.71-6.83,7.94c-8.88,10.33-24.41,22.64-48,22.64-10.21,0-21.13-2.38-32.46-7.07l-9.64-4-2.53,10.13-3.3,13.21-1,4,2.35,3.36c5.3,7.57,8.46,14.47,8.46,18.45s-.3,8.33-.59,12.4c-.28,3.83-.53,7.43-.59,11.14A219,219,0,0,0,110,223.59c3.75,18.91,10.41,35.56,19.8,49.51,10.55,15.67,26,25,42.34,34.79l.72.43c2.94,1.77,5.84,3.49,8.88,5,6,3,10.93,5.93,14.05,7.88l4.64,2.9,4.71-2.79c3.09-1.83,8-4.7,13.6-8,1.79-1,3.53-2,5.23-3l.29-.17c5.65-3.25,11-6.32,16.39-9.93L241,300c9-6,17.47-11.67,24.25-19.73a105,105,0,0,0,15.89-26.51,143.86,143.86,0,0,0,5.42-15.08A190.74,190.74,0,0,0,294,192a281.1,281.1,0,0,0-.65-32.15c0-.47-.07-.95-.11-1.42v-.07c-.11-1.28-.22-2.59-.22-3.89,0-4,3.18-10.93,8.51-18.5l2.35-3.35-1-4-3.25-13.26-2.49-10.16-9.68,4a85.29,85.29,0,0,1-32.42,6.9c-23.73,0-39.13-12.12-47.86-22.3l-6.83-7.95Z"/><path class="cls-8" d="M225.25,193.25v-13.6a25.09,25.09,0,0,0-6-16.45,24.76,24.76,0,0,0-18.94-8.82,25.11,25.11,0,0,0-25,25.27v13.6h-7v54h64v-54Zm-20.55,27.3v12h-8.47v-12a7.15,7.15,0,0,1,4.35-12.82h.08a7,7,0,0,1,7,7.06A7.37,7.37,0,0,1,204.7,220.54Zm8.55-27.3h-27v-14.9c0-8,5.49-14.54,13.5-14.54s13.5,6.53,13.5,14.54Z"/></g></g></g></svg>
